<?xml version="1.0" encoding="UTF-8" standalone="no"?>
<!-- Created with Inkscape (http://www.inkscape.org/) -->

<svg
   xmlns:dc="http://purl.org/dc/elements/1.1/"
   xmlns:cc="http://creativecommons.org/ns#"
   xmlns:rdf="http://www.w3.org/1999/02/22-rdf-syntax-ns#"
   xmlns:svg="http://www.w3.org/2000/svg"
   xmlns="http://www.w3.org/2000/svg"
   xmlns:sodipodi="http://sodipodi.sourceforge.net/DTD/sodipodi-0.dtd"
   xmlns:inkscape="http://www.inkscape.org/namespaces/inkscape"
   width="384"
   height="128"
   id="svg2"
   version="1.1"
   inkscape:version="0.48.2 r9819"
   sodipodi:docname="drawing.svg"
   inkscape:export-filename="/Users/fistel/Developer/SleepySleepySheep/drawing.png"
   inkscape:export-xdpi="90"
   inkscape:export-ydpi="90">
  <defs
     id="defs4" />
  <sodipodi:namedview
     id="base"
     pagecolor="#ffffff"
     bordercolor="#666666"
     borderopacity="1.0"
     inkscape:pageopacity="0.0"
     inkscape:pageshadow="2"
     inkscape:zoom="1.8944751"
     inkscape:cx="183.01688"
     inkscape:cy="17.180687"
     inkscape:document-units="px"
     inkscape:current-layer="layer1"
     showgrid="true"
     inkscape:snap-global="true"
     inkscape:window-width="1366"
     inkscape:window-height="722"
     inkscape:window-x="4"
     inkscape:window-y="0"
     inkscape:window-maximized="0"
     inkscape:snap-bbox="true">
    <inkscape:grid
       type="xygrid"
       id="grid2985"
       empspacing="5"
       visible="true"
       enabled="true"
       snapvisiblegridlinesonly="true"
       spacingx="32px"
       spacingy="32px" />
  </sodipodi:namedview>
  <metadata
     id="metadata7">
    <rdf:RDF>
      <cc:Work
         rdf:about="">
        <dc:format>image/svg+xml</dc:format>
        <dc:type
           rdf:resource="http://purl.org/dc/dcmitype/StillImage" />
        <dc:title />
      </cc:Work>
    </rdf:RDF>
  </metadata>
  <g
     inkscape:label="Layer 1"
     inkscape:groupmode="layer"
     id="layer1"
     transform="translate(0,-924.36218)">
    <path
       style="fill:#254baa;fill-opacity:1;stroke:#000000;stroke-width:2.01222062px;stroke-linecap:butt;stroke-linejoin:miter;stroke-opacity:1"
       d="m 21.898441,940.19121 c -3.745934,1.73581 -12.5533645,19.99324 -11.679137,22.41004 1.78411,4.93215 22.641144,-10.41172 24.521715,-15.75063 z"
       id="path2997"
       inkscape:connector-curvature="0"
       sodipodi:nodetypes="cscc" />
    <path
       style="fill:none;stroke:#000000;stroke-width:2.01222062px;stroke-linecap:butt;stroke-linejoin:miter;stroke-opacity:1"
       d="m 92.097704,974.16706 c 10.644196,0.81135 11.727926,7.32946 19.418966,9.43964"
       id="path3003"
       inkscape:connector-curvature="0"
       sodipodi:nodetypes="cc" />
    <path
       style="fill:none;stroke:#000000;stroke-width:2.01222062px;stroke-linecap:butt;stroke-linejoin:miter;stroke-opacity:1"
       d="m 52.126382,972.54725 c -8.781734,1.23367 -11.480244,8.81669 -11.480244,14.61282"
       id="path3001"
       inkscape:connector-curvature="0"
       sodipodi:nodetypes="cc" />
    <path
       style="fill:none;stroke:#000000;stroke-width:2.01222062px;stroke-linecap:butt;stroke-linejoin:miter;stroke-opacity:1"
       d="m 38.06066,973.5667 c -6.872765,-0.12434 -12.531627,4.79931 -11.541417,14.36419"
       id="path2999"
       inkscape:connector-curvature="0"
       sodipodi:nodetypes="cc" />
    <path
       style="fill:none;stroke:#000000;stroke-width:2.01222062px;stroke-linecap:butt;stroke-linejoin:miter;stroke-opacity:1"
       d="m 104.22024,971.33468 c 7.90032,4.12869 12.25315,6.83907 17.86995,6.99747"
       id="path3005"
       inkscape:connector-curvature="0"
       sodipodi:nodetypes="cc" />
    <path
       style="fill:#d3cccc;fill-opacity:1;stroke:#000000;stroke-width:2.01222062px;stroke-linecap:butt;stroke-linejoin:miter;stroke-opacity:1"
       d="m 20.736076,939.51445 c 0.104903,3.2012 3.24099,5.05784 5.742958,5.59571 -2.413886,4.02196 -4.69182,2.71209 -4.771975,8.17358 -0.08227,5.60589 2.868218,5.46846 5.950017,5.96293 -0.855595,1.24645 -4.170547,2.97688 -3.521216,5.95648 0.304005,1.39499 1.241502,6.05866 7.217339,3.69612 3.641049,4.51728 2.11527,6.02992 6.317243,6.25098 3.996895,0.10428 4.754016,-4.03183 7.215511,-6.33197 4.108173,3.29892 3.707646,5.08186 6.761297,4.90816 2.994642,-0.17034 2.000848,-2.88353 4.577362,-4.02463 2.334889,1.03787 4.326617,2.8851 6.921,3.23962 3.840241,0.52476 5.248218,-3.14598 5.890215,-3.9759 2.899932,2.24479 4.979311,5.46758 8.393554,5.59571 2.93993,0.11033 3.947852,-3.56552 5.301193,-5.59571 6.926578,3.33928 4.509514,6.34484 10.013364,6.33198 7.218407,-1.11898 2.126197,-4.65964 6.479237,-7.36277 2.598755,1.34111 4.081515,3.79703 6.920995,4.12315 2.78172,0.31949 3.97822,-3.54566 4.41766,-5.74296 4.14633,2.29997 7.98387,4.15604 9.27709,-1.76706 0.74354,-3.40549 -3.86529,-5.17686 -7.00873,-5.54244 3.4573,-0.6808 5.04676,-1.70329 5.09441,-4.47092 -0.55333,-4.66704 -8.3021,-3.3607 -8.6818,-3.60307 2.0285,-0.20346 7.50654,-5.51414 6.59202,-7.17477 -0.87038,-1.58048 -7.53839,-1.2169 -9.32093,-1.26264 3.70934,-2.23716 5.9847,-1.84783 3.49654,-7.75126 -0.66497,-1.39933 -6.95746,-6.86944 -11.222725,2.92941 0.1765,-9.48954 -4.356263,-9.5471 -5.226024,-9.69691 -2.116476,-0.36454 -8.898472,4.35269 -8.963778,9.12357 -0.03675,-2.85134 0.243766,-9.46178 -3.487128,-9.51207 -3.531941,1.20476 -6.676784,3.66702 -9.129832,6.47924 -0.961209,-3.43132 -2.555491,-7.58546 -6.664092,-7.24371 -3.551855,0.52516 -4.720233,4.5328 -5.558102,6.65468 -2.062533,-3.09656 -5.459863,-7.37318 -8.688068,-6.33198 -2.987466,1.14222 -3.194171,3.79349 -4.376942,9.1455 -1.388371,-3.17068 -3.988169,-7.06753 -7.575802,-6.71733 -2.490046,0.24307 -2.129633,3.84013 -2.425015,7.38782 -3.923741,-4.24464 -4.195924,-6.45853 -6.090737,-6.28186 -2.41913,0.22556 -1.999984,2.8618 -1.85158,5.54074 -3.663914,0.47393 -7.481746,0.80691 -8.014529,3.29458 z"
       id="path2993"
       inkscape:connector-curvature="0"
       sodipodi:nodetypes="ccscscccscscscccscscccscccscccccccscscc" />
    <path
       sodipodi:nodetypes="cc"
       inkscape:connector-curvature="0"
       id="path3842"
       d="m 87.989259,1035.0764 c -2.198581,4.9226 -2.698142,11.3135 3.898681,16.7283"
       style="fill:none;stroke:#000000;stroke-width:2.01222062px;stroke-linecap:butt;stroke-linejoin:miter;stroke-opacity:1"
       inkscape:transform-center-x="0.40043079"
       inkscape:transform-center-y="7.828241" />
    <path
       sodipodi:nodetypes="cc"
       inkscape:connector-curvature="0"
       id="path3844"
       d="m 52.02185,1037.5 c -1.697103,5.5201 6.610697,7.163 11.95425,9.4083"
       style="fill:none;stroke:#000000;stroke-width:2.01222062px;stroke-linecap:butt;stroke-linejoin:miter;stroke-opacity:1" />
    <path
       sodipodi:nodetypes="cc"
       inkscape:connector-curvature="0"
       id="path3846"
       d="m 39.125717,1036.1984 c -2.747687,6.3009 7.080879,9.2767 11.27079,12.0853"
       style="fill:none;stroke:#000000;stroke-width:2.01222062px;stroke-linecap:butt;stroke-linejoin:miter;stroke-opacity:1" />
    <path
       sodipodi:nodetypes="cc"
       inkscape:connector-curvature="0"
       id="path3848"
       d="m 104.31906,1034.2115 c -5.256452,8.5405 -3.19553,11.4261 2.18627,17.7933"
       style="fill:none;stroke:#000000;stroke-width:2.01222062px;stroke-linecap:butt;stroke-linejoin:miter;stroke-opacity:1"
       inkscape:transform-center-x="-0.86672557"
       inkscape:transform-center-y="6.8836912" />
    <path
       sodipodi:nodetypes="cscc"
       inkscape:connector-curvature="0"
       id="path3840"
       d="m 22.323524,1002.6239 c -3.806794,1.5979 -13.2747394,19.5217 -12.4893059,21.9688 1.6029009,4.994 23.0060779,-9.5784 25.0802629,-14.8451 z"
       style="fill:#254baa;fill-opacity:1;stroke:#000000;stroke-width:2.01222062px;stroke-linecap:butt;stroke-linejoin:miter;stroke-opacity:1" />
    <path
       sodipodi:nodetypes="ccscscccscscscccscscccscccscccccccscscc"
       inkscape:connector-curvature="0"
       id="path3850"
       d="m 21.186635,1001.9051 c -0.01201,3.2029 3.054222,5.1728 5.534891,5.8016 -2.559076,3.9312 -4.787683,2.539 -5.067125,7.994 -0.286826,5.5991 2.666712,5.5695 5.72841,6.1761 -0.90052,1.2144 -4.276422,2.8227 -3.736277,5.824 0.252886,1.4051 1.019538,6.0999 7.077624,3.9571 3.473745,4.6471 1.893773,6.1031 6.084877,6.4774 3.990426,0.2501 4.898007,-3.8557 7.441816,-6.0644 3.985027,3.4466 3.519691,5.2138 6.577647,5.1516 2.998864,-0.061 2.104762,-2.8085 4.721208,-3.8548 2.295452,1.1224 4.21843,3.0411 6.798145,3.49 3.818529,0.6646 5.359547,-2.9523 6.031408,-3.7582 2.816066,2.3491 4.77643,5.6457 8.183721,5.8983 2.933944,0.2176 4.075361,-3.419 5.501901,-5.3985 6.800081,3.5899 4.274927,6.5052 9.775579,6.6933 7.254439,-0.8548 2.294854,-4.579 6.743655,-7.1214 2.548075,1.4351 3.940205,3.9435 6.765895,4.373 2.7682,0.4208 4.10498,-3.3981 4.62433,-5.5779 4.05962,2.4498 7.82685,4.4447 9.3354,-1.4273 0.86734,-3.376 -3.67376,-5.3144 -6.80176,-5.7945 3.47984,-0.5542 5.10556,-1.518 5.2542,-4.282 -0.38262,-4.6841 -8.17391,-3.6615 -8.54451,-3.9176 2.03458,-0.1293 7.7028,-5.2364 6.8495,-6.9293 -0.81211,-1.6112 -7.48895,-1.4913 -9.26863,-1.6021 3.78852,-2.1002 6.04816,-1.6281 3.77713,-7.6184 -0.61346,-1.4227 -6.7021,-7.11883 -11.322172,2.5178 0.522744,-9.47677 -4.004898,-9.69973 -4.868612,-9.88119 -2.10176,-0.44155 -9.051412,4.025 -9.290809,8.79029 0.06735,-2.85075 0.588952,-9.44655 -3.13762,-9.63298 -3.573561,1.07505 -6.806179,3.42088 -9.360237,6.14169 -0.835327,-3.46412 -2.276924,-7.67368 -6.395261,-7.48212 -3.568656,0.39517 -4.882532,4.3575 -5.79729,6.44738 -1.948136,-3.16978 -5.187109,-7.56755 -8.451166,-6.64487 -3.027165,1.03242 -3.330502,3.67438 -4.70783,8.97965 -1.271718,-3.21924 -3.727551,-7.20838 -7.325576,-6.98936 -2.497259,0.15202 -2.268376,3.75984 -2.693049,7.29438 -3.7662,-4.38502 -3.957397,-6.60737 -5.857395,-6.49998 -2.425751,0.13712 -2.103105,2.7869 -2.05258,5.46947 -3.678771,0.33988 -7.506212,0.53329 -8.129438,2.99984 z"
       style="fill:#d3cccc;fill-opacity:1;stroke:#000000;stroke-width:2.01222062px;stroke-linecap:butt;stroke-linejoin:miter;stroke-opacity:1" />
    <path
       sodipodi:nodetypes="cscc"
       inkscape:connector-curvature="0"
       id="path3917"
       d="m 149.89844,940.19121 c -3.74593,1.73581 -12.55336,19.99324 -11.67914,22.41004 1.78411,4.93215 22.64115,-10.41172 24.52172,-15.75063 z"
       style="fill:#254baa;fill-opacity:1;stroke:#000000;stroke-width:2.01222062px;stroke-linecap:butt;stroke-linejoin:miter;stroke-opacity:1" />
    <path
       sodipodi:nodetypes="cc"
       inkscape:connector-curvature="0"
       id="path3919"
       d="m 220.0977,974.16706 c 10.6442,0.81135 11.72793,7.32946 19.41897,9.43964"
       style="fill:none;stroke:#000000;stroke-width:2.01222062px;stroke-linecap:butt;stroke-linejoin:miter;stroke-opacity:1" />
    <path
       sodipodi:nodetypes="cc"
       inkscape:connector-curvature="0"
       id="path3921"
       d="m 180.12638,972.54725 c -8.78173,1.23367 -11.48024,8.81669 -11.48024,14.61282"
       style="fill:none;stroke:#000000;stroke-width:2.01222062px;stroke-linecap:butt;stroke-linejoin:miter;stroke-opacity:1" />
    <path
       sodipodi:nodetypes="cc"
       inkscape:connector-curvature="0"
       id="path3923"
       d="m 166.06066,973.5667 c -6.87277,-0.12434 -12.53163,4.79931 -11.54142,14.36419"
       style="fill:none;stroke:#000000;stroke-width:2.01222062px;stroke-linecap:butt;stroke-linejoin:miter;stroke-opacity:1" />
    <path
       sodipodi:nodetypes="cc"
       inkscape:connector-curvature="0"
       id="path3925"
       d="m 232.22024,971.33468 c 7.90032,4.12869 12.25315,6.83907 17.86995,6.99747"
       style="fill:none;stroke:#000000;stroke-width:2.01222062px;stroke-linecap:butt;stroke-linejoin:miter;stroke-opacity:1" />
    <path
       sodipodi:nodetypes="ccscscccscscscccscscccscccscccccccscscc"
       inkscape:connector-curvature="0"
       id="path3927"
       d="m 148.73608,939.51445 c 0.1049,3.2012 3.24099,5.05784 5.74295,5.59571 -2.41388,4.02196 -4.69182,2.71209 -4.77197,8.17358 -0.0823,5.60589 2.86822,5.46846 5.95002,5.96293 -0.8556,1.24645 -4.17055,2.97688 -3.52122,5.95648 0.304,1.39499 1.2415,6.05866 7.21734,3.69612 3.64105,4.51728 2.11527,6.02992 6.31724,6.25098 3.9969,0.10428 4.75402,-4.03183 7.21551,-6.33197 4.10818,3.29892 3.70765,5.08186 6.7613,4.90816 2.99464,-0.17034 2.00085,-2.88353 4.57736,-4.02463 2.33489,1.03787 4.32662,2.8851 6.921,3.23962 3.84024,0.52476 5.24822,-3.14598 5.89022,-3.9759 2.89993,2.24479 4.97931,5.46758 8.39355,5.59571 2.93993,0.11033 3.94785,-3.56552 5.30119,-5.59571 6.92658,3.33928 4.50952,6.34484 10.01337,6.33198 7.2184,-1.11898 2.12619,-4.65964 6.47923,-7.36277 2.59876,1.34111 4.08152,3.79703 6.921,4.12315 2.78172,0.31949 3.97822,-3.54566 4.41766,-5.74296 4.14633,2.29997 7.98387,4.15604 9.27709,-1.76706 0.74354,-3.40549 -3.86529,-5.17686 -7.00873,-5.54244 3.4573,-0.6808 5.04676,-1.70329 5.09441,-4.47092 -0.55333,-4.66704 -8.3021,-3.3607 -8.6818,-3.60307 2.0285,-0.20346 7.50654,-5.51414 6.59202,-7.17477 -0.87038,-1.58048 -7.53839,-1.2169 -9.32093,-1.26264 3.70934,-2.23716 5.9847,-1.84783 3.49654,-7.75126 -0.66497,-1.39933 -6.95746,-6.86944 -11.22273,2.92941 0.1765,-9.48954 -4.35626,-9.5471 -5.22602,-9.69691 -2.11648,-0.36454 -8.89847,4.35269 -8.96378,9.12357 -0.0368,-2.85134 0.24377,-9.46178 -3.48713,-9.51207 -3.53194,1.20476 -6.67678,3.66702 -9.12983,6.47924 -0.96121,-3.43132 -2.55549,-7.58546 -6.66409,-7.24371 -3.55185,0.52516 -4.72023,4.5328 -5.5581,6.65468 -2.06253,-3.09656 -5.45986,-7.37318 -8.68807,-6.33198 -2.98747,1.14222 -3.19417,3.79349 -4.37694,9.1455 -1.38837,-3.17068 -3.98817,-7.06753 -7.5758,-6.71733 -2.49005,0.24307 -2.12964,3.84013 -2.42502,7.38782 -3.92374,-4.24464 -4.19592,-6.45853 -6.09074,-6.28186 -2.41913,0.22556 -1.99998,2.8618 -1.85158,5.54074 -3.66391,0.47393 -7.48174,0.80691 -8.01452,3.29458 z"
       style="fill:#000014;fill-opacity:1;stroke:#000000;stroke-width:2.01222061999999990px;stroke-linecap:butt;stroke-linejoin:miter;stroke-opacity:1" />
    <path
       inkscape:transform-center-y="7.828241"
       inkscape:transform-center-x="0.40043079"
       style="fill:none;stroke:#000000;stroke-width:2.01222062px;stroke-linecap:butt;stroke-linejoin:miter;stroke-opacity:1"
       d="m 215.98926,1035.0764 c -2.19858,4.9226 -2.69814,11.3135 3.89868,16.7283"
       id="path3929"
       inkscape:connector-curvature="0"
       sodipodi:nodetypes="cc" />
    <path
       style="fill:none;stroke:#000000;stroke-width:2.01222062px;stroke-linecap:butt;stroke-linejoin:miter;stroke-opacity:1"
       d="m 180.02185,1037.5 c -1.6971,5.5201 6.6107,7.163 11.95425,9.4083"
       id="path3931"
       inkscape:connector-curvature="0"
       sodipodi:nodetypes="cc" />
    <path
       style="fill:none;stroke:#000000;stroke-width:2.01222062px;stroke-linecap:butt;stroke-linejoin:miter;stroke-opacity:1"
       d="m 167.12572,1036.1984 c -2.74769,6.3009 7.08088,9.2767 11.27079,12.0853"
       id="path3933"
       inkscape:connector-curvature="0"
       sodipodi:nodetypes="cc" />
    <path
       inkscape:transform-center-y="6.8836912"
       inkscape:transform-center-x="-0.86672557"
       style="fill:none;stroke:#000000;stroke-width:2.01222062px;stroke-linecap:butt;stroke-linejoin:miter;stroke-opacity:1"
       d="m 232.31906,1034.2115 c -5.25645,8.5405 -3.19553,11.4261 2.18627,17.7933"
       id="path3935"
       inkscape:connector-curvature="0"
       sodipodi:nodetypes="cc" />
    <path
       style="fill:#254baa;fill-opacity:1;stroke:#000000;stroke-width:2.01222062px;stroke-linecap:butt;stroke-linejoin:miter;stroke-opacity:1"
       d="m 150.32352,1002.6239 c -3.80679,1.5979 -13.27474,19.5217 -12.4893,21.9688 1.6029,4.994 23.00608,-9.5784 25.08026,-14.8451 z"
       id="path3939"
       inkscape:connector-curvature="0"
       sodipodi:nodetypes="cscc" />
    <path
       style="fill:#000014;fill-opacity:1;stroke:#000000;stroke-width:2.01222061999999990px;stroke-linecap:butt;stroke-linejoin:miter;stroke-opacity:1"
       d="m 149.18663,1001.9051 c -0.012,3.2029 3.05423,5.1728 5.5349,5.8016 -2.55908,3.9312 -4.78769,2.539 -5.06713,7.994 -0.28683,5.5991 2.66671,5.5695 5.72841,6.1761 -0.90052,1.2144 -4.27642,2.8227 -3.73628,5.824 0.25289,1.4051 1.01954,6.0999 7.07763,3.9571 3.47374,4.6471 1.89377,6.1031 6.08488,6.4774 3.99042,0.2501 4.898,-3.8557 7.44181,-6.0644 3.98503,3.4466 3.51969,5.2138 6.57765,5.1516 2.99886,-0.061 2.10476,-2.8085 4.72121,-3.8548 2.29545,1.1224 4.21843,3.0411 6.79814,3.49 3.81853,0.6646 5.35955,-2.9523 6.03141,-3.7582 2.81607,2.3491 4.77643,5.6457 8.18372,5.8983 2.93394,0.2176 4.07536,-3.419 5.5019,-5.3985 6.80008,3.5899 4.27493,6.5052 9.77558,6.6933 7.25444,-0.8548 2.29485,-4.579 6.74366,-7.1214 2.54807,1.4351 3.9402,3.9435 6.76589,4.373 2.7682,0.4208 4.10498,-3.3981 4.62433,-5.5779 4.05962,2.4498 7.82685,4.4447 9.3354,-1.4273 0.86734,-3.376 -3.67376,-5.3144 -6.80176,-5.7945 3.47984,-0.5542 5.10556,-1.518 5.2542,-4.282 -0.38262,-4.6841 -8.17391,-3.6615 -8.54451,-3.9176 2.03458,-0.1293 7.7028,-5.2364 6.8495,-6.9293 -0.81211,-1.6112 -7.48895,-1.4913 -9.26863,-1.6021 3.78852,-2.1002 6.04816,-1.6281 3.77713,-7.6184 -0.61346,-1.4227 -6.7021,-7.11883 -11.32217,2.5178 0.52274,-9.47677 -4.0049,-9.69973 -4.86861,-9.88119 -2.10176,-0.44155 -9.05142,4.025 -9.29081,8.79029 0.0673,-2.85075 0.58895,-9.44655 -3.13762,-9.63298 -3.57356,1.07505 -6.80618,3.42088 -9.36024,6.14169 -0.83533,-3.46412 -2.27692,-7.67368 -6.39526,-7.48212 -3.56866,0.39517 -4.88253,4.3575 -5.79729,6.44738 -1.94814,-3.16978 -5.18711,-7.56755 -8.45117,-6.64487 -3.02716,1.03242 -3.3305,3.67438 -4.70783,8.97965 -1.27171,-3.21924 -3.72755,-7.20838 -7.32557,-6.98936 -2.49726,0.15202 -2.26838,3.75984 -2.69305,7.29438 -3.7662,-4.38502 -3.9574,-6.60737 -5.8574,-6.49998 -2.42575,0.13712 -2.1031,2.7869 -2.05258,5.46947 -3.67877,0.33988 -7.50621,0.53329 -8.12944,2.99984 z"
       id="path3941"
       inkscape:connector-curvature="0"
       sodipodi:nodetypes="ccscscccscscscccscscccscccscccccccscscc" />
    <path
       style="fill:#254baa;fill-opacity:1;stroke:#000000;stroke-width:2.01222062px;stroke-linecap:butt;stroke-linejoin:miter;stroke-opacity:1"
       d="m 277.89844,940.19121 c -3.74593,1.73581 -12.55336,19.99324 -11.67914,22.41004 1.78411,4.93215 22.64115,-10.41172 24.52172,-15.75063 z"
       id="path3945"
       inkscape:connector-curvature="0"
       sodipodi:nodetypes="cscc" />
    <path
       style="fill:none;stroke:#000000;stroke-width:2.01222062px;stroke-linecap:butt;stroke-linejoin:miter;stroke-opacity:1"
       d="m 348.0977,974.16706 c 10.6442,0.81135 11.72793,7.32946 19.41897,9.43964"
       id="path3947"
       inkscape:connector-curvature="0"
       sodipodi:nodetypes="cc" />
    <path
       style="fill:none;stroke:#000000;stroke-width:2.01222062px;stroke-linecap:butt;stroke-linejoin:miter;stroke-opacity:1"
       d="m 308.12638,972.54725 c -8.78173,1.23367 -11.48024,8.81669 -11.48024,14.61282"
       id="path3949"
       inkscape:connector-curvature="0"
       sodipodi:nodetypes="cc" />
    <path
       style="fill:none;stroke:#000000;stroke-width:2.01222062px;stroke-linecap:butt;stroke-linejoin:miter;stroke-opacity:1"
       d="m 294.06066,973.5667 c -6.87277,-0.12434 -12.53163,4.79931 -11.54142,14.36419"
       id="path3951"
       inkscape:connector-curvature="0"
       sodipodi:nodetypes="cc" />
    <path
       style="fill:none;stroke:#000000;stroke-width:2.01222062px;stroke-linecap:butt;stroke-linejoin:miter;stroke-opacity:1"
       d="m 360.22024,971.33468 c 7.90032,4.12869 12.25315,6.83907 17.86995,6.99747"
       id="path3953"
       inkscape:connector-curvature="0"
       sodipodi:nodetypes="cc" />
    <path
       style="fill:#cc3ca8;fill-opacity:1;stroke:#000000;stroke-width:2.01222061999999990px;stroke-linecap:butt;stroke-linejoin:miter;stroke-opacity:1"
       d="m 276.73608,939.51445 c 0.1049,3.2012 3.24099,5.05784 5.74295,5.59571 -2.41388,4.02196 -4.69182,2.71209 -4.77197,8.17358 -0.0823,5.60589 2.86822,5.46846 5.95002,5.96293 -0.8556,1.24645 -4.17055,2.97688 -3.52122,5.95648 0.304,1.39499 1.2415,6.05866 7.21734,3.69612 3.64105,4.51728 2.11527,6.02992 6.31724,6.25098 3.9969,0.10428 4.75402,-4.03183 7.21551,-6.33197 4.10818,3.29892 3.70765,5.08186 6.7613,4.90816 2.99464,-0.17034 2.00085,-2.88353 4.57736,-4.02463 2.33489,1.03787 4.32662,2.8851 6.921,3.23962 3.84024,0.52476 5.24822,-3.14598 5.89022,-3.9759 2.89993,2.24479 4.97931,5.46758 8.39355,5.59571 2.93993,0.11033 3.94785,-3.56552 5.30119,-5.59571 6.92658,3.33928 4.50952,6.34484 10.01337,6.33198 7.2184,-1.11898 2.12619,-4.65964 6.47923,-7.36277 2.59876,1.34111 4.08152,3.79703 6.921,4.12315 2.78172,0.31949 3.97822,-3.54566 4.41766,-5.74296 4.14633,2.29997 7.98387,4.15604 9.27709,-1.76706 0.74354,-3.40549 -3.86529,-5.17686 -7.00873,-5.54244 3.4573,-0.6808 5.04676,-1.70329 5.09441,-4.47092 -0.55333,-4.66704 -8.3021,-3.3607 -8.6818,-3.60307 2.0285,-0.20346 7.50654,-5.51414 6.59202,-7.17477 -0.87038,-1.58048 -7.53839,-1.2169 -9.32093,-1.26264 3.70934,-2.23716 5.9847,-1.84783 3.49654,-7.75126 -0.66497,-1.39933 -6.95746,-6.86944 -11.22273,2.92941 0.1765,-9.48954 -4.35626,-9.5471 -5.22602,-9.69691 -2.11648,-0.36454 -8.89847,4.35269 -8.96378,9.12357 -0.0368,-2.85134 0.24377,-9.46178 -3.48713,-9.51207 -3.53194,1.20476 -6.67678,3.66702 -9.12983,6.47924 -0.96121,-3.43132 -2.55549,-7.58546 -6.66409,-7.24371 -3.55185,0.52516 -4.72023,4.5328 -5.5581,6.65468 -2.06253,-3.09656 -5.45986,-7.37318 -8.68807,-6.33198 -2.98747,1.14222 -3.19417,3.79349 -4.37694,9.1455 -1.38837,-3.17068 -3.98817,-7.06753 -7.5758,-6.71733 -2.49005,0.24307 -2.12964,3.84013 -2.42502,7.38782 -3.92374,-4.24464 -4.19592,-6.45853 -6.09074,-6.28186 -2.41913,0.22556 -1.99998,2.8618 -1.85158,5.54074 -3.66391,0.47393 -7.48174,0.80691 -8.01452,3.29458 z"
       id="path3955"
       inkscape:connector-curvature="0"
       sodipodi:nodetypes="ccscscccscscscccscscccscccscccccccscscc" />
    <path
       sodipodi:nodetypes="cc"
       inkscape:connector-curvature="0"
       id="path3957"
       d="m 343.98926,1035.0764 c -2.19858,4.9226 -2.69814,11.3135 3.89868,16.7283"
       style="fill:none;stroke:#000000;stroke-width:2.01222062px;stroke-linecap:butt;stroke-linejoin:miter;stroke-opacity:1"
       inkscape:transform-center-x="0.40043079"
       inkscape:transform-center-y="7.828241" />
    <path
       sodipodi:nodetypes="cc"
       inkscape:connector-curvature="0"
       id="path3959"
       d="m 308.02185,1037.5 c -1.6971,5.5201 6.6107,7.163 11.95425,9.4083"
       style="fill:none;stroke:#000000;stroke-width:2.01222062px;stroke-linecap:butt;stroke-linejoin:miter;stroke-opacity:1" />
    <path
       sodipodi:nodetypes="cc"
       inkscape:connector-curvature="0"
       id="path3961"
       d="m 295.12572,1036.1984 c -2.74769,6.3009 7.08088,9.2767 11.27079,12.0853"
       style="fill:none;stroke:#000000;stroke-width:2.01222062px;stroke-linecap:butt;stroke-linejoin:miter;stroke-opacity:1" />
    <path
       sodipodi:nodetypes="cc"
       inkscape:connector-curvature="0"
       id="path3963"
       d="m 360.31906,1034.2115 c -5.25645,8.5405 -3.19553,11.4261 2.18627,17.7933"
       style="fill:none;stroke:#000000;stroke-width:2.01222062px;stroke-linecap:butt;stroke-linejoin:miter;stroke-opacity:1"
       inkscape:transform-center-x="-0.86672557"
       inkscape:transform-center-y="6.8836912" />
    <path
       sodipodi:nodetypes="cscc"
       inkscape:connector-curvature="0"
       id="path3967"
       d="m 278.32352,1002.6239 c -3.80679,1.5979 -13.27474,19.5217 -12.4893,21.9688 1.6029,4.994 23.00608,-9.5784 25.08026,-14.8451 z"
       style="fill:#254baa;fill-opacity:1;stroke:#000000;stroke-width:2.01222062px;stroke-linecap:butt;stroke-linejoin:miter;stroke-opacity:1" />
    <path
       sodipodi:nodetypes="ccscscccscscscccscscccscccscccccccscscc"
       inkscape:connector-curvature="0"
       id="path3969"
       d="m 277.18663,1001.9051 c -0.012,3.2029 3.05423,5.1728 5.5349,5.8016 -2.55908,3.9312 -4.78769,2.539 -5.06713,7.994 -0.28683,5.5991 2.66671,5.5695 5.72841,6.1761 -0.90052,1.2144 -4.27642,2.8227 -3.73628,5.824 0.25289,1.4051 1.01954,6.0999 7.07763,3.9571 3.47374,4.6471 1.89377,6.1031 6.08488,6.4774 3.99042,0.2501 4.898,-3.8557 7.44181,-6.0644 3.98503,3.4466 3.51969,5.2138 6.57765,5.1516 2.99886,-0.061 2.10476,-2.8085 4.72121,-3.8548 2.29545,1.1224 4.21843,3.0411 6.79814,3.49 3.81853,0.6646 5.35955,-2.9523 6.03141,-3.7582 2.81607,2.3491 4.77643,5.6457 8.18372,5.8983 2.93394,0.2176 4.07536,-3.419 5.5019,-5.3985 6.80008,3.5899 4.27493,6.5052 9.77558,6.6933 7.25444,-0.8548 2.29485,-4.579 6.74366,-7.1214 2.54807,1.4351 3.9402,3.9435 6.76589,4.373 2.7682,0.4208 4.10498,-3.3981 4.62433,-5.5779 4.05962,2.4498 7.82685,4.4447 9.3354,-1.4273 0.86734,-3.376 -3.67376,-5.3144 -6.80176,-5.7945 3.47984,-0.5542 5.10556,-1.518 5.2542,-4.282 -0.38262,-4.6841 -8.17391,-3.6615 -8.54451,-3.9176 2.03458,-0.1293 7.7028,-5.2364 6.8495,-6.9293 -0.81211,-1.6112 -7.48895,-1.4913 -9.26863,-1.6021 3.78852,-2.1002 6.04816,-1.6281 3.77713,-7.6184 -0.61346,-1.4227 -6.7021,-7.11883 -11.32217,2.5178 0.52274,-9.47677 -4.0049,-9.69973 -4.86861,-9.88119 -2.10176,-0.44155 -9.05142,4.025 -9.29081,8.79029 0.0673,-2.85075 0.58895,-9.44655 -3.13762,-9.63298 -3.57356,1.07505 -6.80618,3.42088 -9.36024,6.14169 -0.83533,-3.46412 -2.27692,-7.67368 -6.39526,-7.48212 -3.56866,0.39517 -4.88253,4.3575 -5.79729,6.44738 -1.94814,-3.16978 -5.18711,-7.56755 -8.45117,-6.64487 -3.02716,1.03242 -3.3305,3.67438 -4.70783,8.97965 -1.27171,-3.21924 -3.72755,-7.20838 -7.32557,-6.98936 -2.49726,0.15202 -2.26838,3.75984 -2.69305,7.29438 -3.7662,-4.38502 -3.9574,-6.60737 -5.8574,-6.49998 -2.42575,0.13712 -2.1031,2.7869 -2.05258,5.46947 -3.67877,0.33988 -7.50621,0.53329 -8.12944,2.99984 z"
       style="fill:#cc3ca8;fill-opacity:1;stroke:#000000;stroke-width:2.01222061999999990px;stroke-linecap:butt;stroke-linejoin:miter;stroke-opacity:1" />
  </g>
</svg>
